dataset
version=1
nRows=25
nColumns=39
inDegrees=no
endheader
time	sternoclavicular_r2	sternoclavicular_r3	unrotscap_r3	unrotscap_r2	acromioclavicular_r2	acromioclavicular_r3	acromioclavicular_r1	unrothum_r1	unrothum_r3	unrothum_r2	elv_angle	shoulder_elv	shoulder1_r2	shoulder_rot	elbow_flexion	pro_sup	deviation	flexion	cmc_abduction	cmc_flexion	mp_flexion	ip_flexion	mcp2_flexion	mcp2_abduction	pm2_flexion	md2_flexion	mcp3_flexion	mcp3_abduction	pm3_flexion	md3_flexion	mcp4_flexion	mcp4_abduction	pm4_flexion	md4_flexion	mcp5_flexion	mcp5_abduction	pm5_flexion	md5_flexion
3.460000	-0.007948	-0.304535	0.143444	0.049156	0.042461	0.034920	-0.171041	-0.139750	-0.073262	0.121169	0.049298	0.027437	0.146525	0.146525	1.502118	1.283261	0.000000	0.000000	0.000000	0.000000	0.000000	0.000000	0.000000	0.000000	0.000000	0.000000	0.000000	0.000000	0.000000	0.000000	0.000000	0.000000	0.000000	0.000000	0.000000	0.000000	0.000000	0.000000
3.465000	-0.007961	-0.305073	0.144605	0.048392	0.041577	0.035472	-0.171993	-0.141163	-0.073006	0.120132	0.048148	0.027437	0.146525	0.146525	1.507119	1.283046	0.000000	0.000000	0.000000	0.000000	0.000000	0.000000	0.000000	0.000000	0.000000	0.000000	0.000000	0.000000	0.000000	0.000000	0.000000	0.000000	0.000000	0.000000	0.000000	0.000000	0.000000	0.000000
3.470000	-0.007974	-0.305602	0.145776	0.047619	0.040676	0.036063	-0.172925	-0.142567	-0.072716	0.119068	0.046986	0.027437	0.146525	0.146525	1.511949	1.282843	0.000000	0.000000	0.000000	0.000000	0.000000	0.000000	0.000000	0.000000	0.000000	0.000000	0.000000	0.000000	0.000000	0.000000	0.000000	0.000000	0.000000	0.000000	0.000000	0.000000	0.000000	0.000000
3.475000	-0.007988	-0.306124	0.146955	0.046837	0.039759	0.036692	-0.173834	-0.143960	-0.072389	0.117978	0.045812	0.027437	0.146525	0.146525	1.516595	1.282653	0.000000	0.000000	0.000000	0.000000	0.000000	0.000000	0.000000	0.000000	0.000000	0.000000	0.000000	0.000000	0.000000	0.000000	0.000000	0.000000	0.000000	0.000000	0.000000	0.000000	0.000000	0.000000
3.480000	-0.008003	-0.306635	0.148141	0.046049	0.038828	0.037359	-0.174720	-0.145339	-0.072026	0.116861	0.044629	0.027437	0.146525	0.146525	1.521047	1.282476	0.000000	0.000000	0.000000	0.000000	0.000000	0.000000	0.000000	0.000000	0.000000	0.000000	0.000000	0.000000	0.000000	0.000000	0.000000	0.000000	0.000000	0.000000	0.000000	0.000000	0.000000	0.000000
3.485000	-0.008018	-0.307137	0.149331	0.045254	0.037881	0.038064	-0.175580	-0.146704	-0.071624	0.115720	0.043438	0.027437	0.146525	0.146525	1.525293	1.282313	0.000000	0.000000	0.000000	0.000000	0.000000	0.000000	0.000000	0.000000	0.000000	0.000000	0.000000	0.000000	0.000000	0.000000	0.000000	0.000000	0.000000	0.000000	0.000000	0.000000	0.000000	0.000000
3.490000	-0.008034	-0.307628	0.150525	0.044454	0.036922	0.038808	-0.176413	-0.148053	-0.071184	0.114555	0.042239	0.027437	0.146525	0.146525	1.529322	1.282164	0.000000	0.000000	0.000000	0.000000	0.000000	0.000000	0.000000	0.000000	0.000000	0.000000	0.000000	0.000000	0.000000	0.000000	0.000000	0.000000	0.000000	0.000000	0.000000	0.000000	0.000000	0.000000
3.495000	-0.008050	-0.308106	0.151721	0.043649	0.035950	0.039588	-0.177217	-0.149385	-0.070704	0.113368	0.041035	0.027437	0.146525	0.146525	1.533123	1.282030	0.000000	0.000000	0.000000	0.000000	0.000000	0.000000	0.000000	0.000000	0.000000	0.000000	0.000000	0.000000	0.000000	0.000000	0.000000	0.000000	0.000000	0.000000	0.000000	0.000000	0.000000	0.000000
3.500000	-0.008067	-0.308572	0.152917	0.042841	0.034967	0.040405	-0.177991	-0.150699	-0.070184	0.112158	0.039827	0.027437	0.146525	0.146525	1.536687	1.281910	0.000000	0.000000	0.000000	0.000000	0.000000	0.000000	0.000000	0.000000	0.000000	0.000000	0.000000	0.000000	0.000000	0.000000	0.000000	0.000000	0.000000	0.000000	0.000000	0.000000	0.000000	0.000000
3.505000	-0.008083	-0.309024	0.154112	0.042030	0.033974	0.041257	-0.178732	-0.151992	-0.069623	0.110928	0.038617	0.027437	0.146525	0.146525	1.540004	1.281806	0.000000	0.000000	0.000000	0.000000	0.000000	0.000000	0.000000	0.000000	0.000000	0.000000	0.000000	0.000000	0.000000	0.000000	0.000000	0.000000	0.000000	0.000000	0.000000	0.000000	0.000000	0.000000
3.510000	-0.008100	-0.309463	0.155304	0.041218	0.032973	0.042144	-0.179439	-0.153265	-0.069020	0.109678	0.037405	0.027437	0.146525	0.146525	1.543065	1.281717	0.000000	0.000000	0.000000	0.000000	0.000000	0.000000	0.000000	0.000000	0.000000	0.000000	0.000000	0.000000	0.000000	0.000000	0.000000	0.000000	0.000000	0.000000	0.000000	0.000000	0.000000	0.000000
3.515000	-0.008116	-0.309887	0.156491	0.040405	0.031964	0.043066	-0.180112	-0.154514	-0.068376	0.108411	0.036194	0.027437	0.146525	0.146525	1.545862	1.281644	0.000000	0.000000	0.000000	0.000000	0.000000	0.000000	0.000000	0.000000	0.000000	0.000000	0.000000	0.000000	0.000000	0.000000	0.000000	0.000000	0.000000	0.000000	0.000000	0.000000	0.000000	0.000000
3.520000	-0.008132	-0.310296	0.157672	0.039594	0.030949	0.044020	-0.180749	-0.155741	-0.067689	0.107127	0.034985	0.027437	0.146525	0.146525	1.548386	1.281587	0.000000	0.000000	0.000000	0.000000	0.000000	0.000000	0.000000	0.000000	0.000000	0.000000	0.000000	0.000000	0.000000	0.000000	0.000000	0.000000	0.000000	0.000000	0.000000	0.000000	0.000000	0.000000
3.525000	-0.008149	-0.310689	0.158845	0.038784	0.029929	0.045006	-0.181348	-0.156943	-0.066960	0.105828	0.033781	0.027437	0.146525	0.146525	1.550630	1.281545	0.000000	0.000000	0.000000	0.000000	0.000000	0.000000	0.000000	0.000000	0.000000	0.000000	0.000000	0.000000	0.000000	0.000000	0.000000	0.000000	0.000000	0.000000	0.000000	0.000000	0.000000	0.000000
3.530000	-0.008165	-0.311066	0.160009	0.037978	0.028906	0.046022	-0.181909	-0.158119	-0.066187	0.104516	0.032582	0.027437	0.146525	0.146525	1.552588	1.281521	0.000000	0.000000	0.000000	0.000000	0.000000	0.000000	0.000000	0.000000	0.000000	0.000000	0.000000	0.000000	0.000000	0.000000	0.000000	0.000000	0.000000	0.000000	0.000000	0.000000	0.000000	0.000000
3.535000	-0.008181	-0.311428	0.161162	0.037176	0.027882	0.047068	-0.182431	-0.159268	-0.065372	0.103192	0.031392	0.027437	0.146525	0.146525	1.554254	1.281512	0.000000	0.000000	0.000000	0.000000	0.000000	0.000000	0.000000	0.000000	0.000000	0.000000	0.000000	0.000000	0.000000	0.000000	0.000000	0.000000	0.000000	0.000000	0.000000	0.000000	0.000000	0.000000
3.540000	-0.008197	-0.311773	0.162303	0.036380	0.026857	0.048141	-0.182912	-0.160389	-0.064513	0.101858	0.030210	0.027437	0.146525	0.146525	1.555621	1.281520	0.000000	0.000000	0.000000	0.000000	0.000000	0.000000	0.000000	0.000000	0.000000	0.000000	0.000000	0.000000	0.000000	0.000000	0.000000	0.000000	0.000000	0.000000	0.000000	0.000000	0.000000	0.000000
3.545000	-0.008213	-0.312101	0.163430	0.035591	0.025835	0.049240	-0.183353	-0.161481	-0.063612	0.100516	0.029040	0.027437	0.146525	0.146525	1.556686	1.281545	0.000000	0.000000	0.000000	0.000000	0.000000	0.000000	0.000000	0.000000	0.000000	0.000000	0.000000	0.000000	0.000000	0.000000	0.000000	0.000000	0.000000	0.000000	0.000000	0.000000	0.000000	0.000000
3.550000	-0.008229	-0.312413	0.164541	0.034811	0.024815	0.050365	-0.183753	-0.162544	-0.062668	0.099168	0.027883	0.027437	0.146525	0.146525	1.557444	1.281586	0.000000	0.000000	0.000000	0.000000	0.000000	0.000000	0.000000	0.000000	0.000000	0.000000	0.000000	0.000000	0.000000	0.000000	0.000000	0.000000	0.000000	0.000000	0.000000	0.000000	0.000000	0.000000
3.555000	-0.008245	-0.312708	0.165636	0.034041	0.023801	0.051512	-0.184110	-0.163577	-0.061681	0.097815	0.026740	0.027437	0.146525	0.146525	1.557891	1.281644	0.000000	0.000000	0.000000	0.000000	0.000000	0.000000	0.000000	0.000000	0.000000	0.000000	0.000000	0.000000	0.000000	0.000000	0.000000	0.000000	0.000000	0.000000	0.000000	0.000000	0.000000	0.000000
3.560000	-0.008262	-0.312986	0.166713	0.033283	0.022794	0.052681	-0.184426	-0.164577	-0.060653	0.096461	0.025615	0.027437	0.146525	0.146525	1.558025	1.281719	0.000000	0.000000	0.000000	0.000000	0.000000	0.000000	0.000000	0.000000	0.000000	0.000000	0.000000	0.000000	0.000000	0.000000	0.000000	0.000000	0.000000	0.000000	0.000000	0.000000	0.000000	0.000000
3.565000	-0.008279	-0.313247	0.167770	0.032536	0.021795	0.053869	-0.184698	-0.165546	-0.059583	0.095106	0.024508	0.027437	0.146525	0.146525	1.557844	1.281810	0.000000	0.000000	0.000000	0.000000	0.000000	0.000000	0.000000	0.000000	0.000000	0.000000	0.000000	0.000000	0.000000	0.000000	0.000000	0.000000	0.000000	0.000000	0.000000	0.000000	0.000000	0.000000
3.570000	-0.008296	-0.313492	0.168806	0.031804	0.020806	0.055076	-0.184929	-0.166482	-0.058472	0.093753	0.023421	0.027437	0.146525	0.146525	1.557346	1.281917	0.000000	0.000000	0.000000	0.000000	0.000000	0.000000	0.000000	0.000000	0.000000	0.000000	0.000000	0.000000	0.000000	0.000000	0.000000	0.000000	0.000000	0.000000	0.000000	0.000000	0.000000	0.000000
3.575000	-0.008313	-0.313720	0.169821	0.031088	0.019829	0.056298	-0.185116	-0.167385	-0.057321	0.092403	0.022357	0.027437	0.146525	0.146525	1.556531	1.282040	0.000000	0.000000	0.000000	0.000000	0.000000	0.000000	0.000000	0.000000	0.000000	0.000000	0.000000	0.000000	0.000000	0.000000	0.000000	0.000000	0.000000	0.000000	0.000000	0.000000	0.000000	0.000000
3.580000	-0.008332	-0.313931	0.170812	0.030388	0.018866	0.057535	-0.185261	-0.168254	-0.056131	0.091059	0.021316	0.027437	0.146525	0.146525	1.555398	1.282179	0.000000	0.000000	0.000000	0.000000	0.000000	0.000000	0.000000	0.000000	0.000000	0.000000	0.000000	0.000000	0.000000	0.000000	0.000000	0.000000	0.000000	0.000000	0.000000	0.000000	0.000000	0.000000
